# xmcd
#
# Track frame offsets:
#	182
#	26567
#	38502
#	51792
#	64167
#	84385
#	104932
#	119150
#	134887
#	157080
#	181712
#	202270
#	219325
#	238542
#	253115
#	283165
#
# Disc length: 4193 seconds
#
# Revision: 2
# Processed by: cddbd v1.4PL0 Copyright (c) Steve Scherf et al.
# Submitted via: audiograbber 1.81.03
#
DISCID=fa105f10
DTITLE=Harpdog Brown and The Bloodhounds - Home Is Where The Harp Is
DYEAR=1994
DGENRE=Blues
TTITLE0=Rocket 88
TTITLE1=29 Ways
TTITLE2=My Heart Is On The Line
TTITLE3=Nobody But You
TTITLE4=She Felt Too Good
TTITLE5=You Gonna Miss Me
TTITLE6=Fine Little Girl Rag
TTITLE7=Foul Weather Blues
TTITLE8=Home Is Where The Harp Is
TTITLE9=Rockin' Fool
TTITLE10=Doncha Know I Loves Ya
TTITLE11=Whiskey Bottle
TTITLE12=Cruel Old Woman
TTITLE13=Dig Dirty Doogie
TTITLE14=Standin' Around Cryin'
TTITLE15=Git To Gittin'
EXTD=
EXTT0=
EXTT1=
EXTT2=
EXTT3=
EXTT4=
EXTT5=
EXTT6=
EXTT7=
EXTT8=
EXTT9=
EXTT10=
EXTT11=
EXTT12=
EXTT13=
EXTT14=
EXTT15=
PLAYORDER=
